<svg xmlns="http://www.w3.org/2000/svg" xmlns:xlink="http://www.w3.org/1999/xlink" viewBox="0 0 500 500"><defs><style>.cls-1{fill:url(#linear-gradient);}.cls-2{fill:url(#linear-gradient-2);}.cls-3{fill:url(#linear-gradient-3);}.cls-4{fill:url(#linear-gradient-4);}.cls-5{fill:url(#linear-gradient-5);}.cls-6{fill:url(#linear-gradient-6);}.cls-7{fill:#231f20;}</style><linearGradient id="linear-gradient" x1="181.77" y1="228.92" x2="158.6" y2="215.64" gradientTransform="matrix(1, 0, 0, -1, 0, 499.04)" gradientUnits="userSpaceOnUse"><stop offset="0" stop-color="#e5cb33"/><stop offset="0.67" stop-color="#e4a327"/></linearGradient><linearGradient id="linear-gradient-2" x1="175.12" y1="241.44" x2="204.4" y2="219.33" xlink:href="#linear-gradient"/><linearGradient id="linear-gradient-3" x1="173.6" y1="224.53" x2="157.22" y2="267.46" xlink:href="#linear-gradient"/><linearGradient id="linear-gradient-4" x1="378.23" y1="228.93" x2="355.06" y2="215.65" xlink:href="#linear-gradient"/><linearGradient id="linear-gradient-5" x1="371.61" y1="241.47" x2="400.88" y2="219.36" xlink:href="#linear-gradient"/><linearGradient id="linear-gradient-6" x1="370.13" y1="224.56" x2="353.75" y2="267.49" xlink:href="#linear-gradient"/></defs><g id="Layer_1" data-name="Layer 1"><path d="M72,278.64l-1.64-5.94c-.56-2-.94-3.49-1.19-4.5a36,36,0,0,0-2.91-8.57,13.33,13.33,0,0,0-4.38-5.1,5.58,5.58,0,0,0-2.11-.83,15.1,15.1,0,0,0-2.42-.2,19.24,19.24,0,0,0-2.49.11,18.4,18.4,0,0,1-2.26.11v-1.86h4.66a10.24,10.24,0,0,0,4.6-.88,27.12,27.12,0,0,0,4.22-2.42,14.86,14.86,0,0,0,3.36-3.31,15.12,15.12,0,0,0,2.23-4.54,21.16,21.16,0,0,0,.81-6.23,22.27,22.27,0,0,0-2.07-10.29,15.58,15.58,0,0,0-5.56-6.11,21.61,21.61,0,0,0-8.13-3,60.54,60.54,0,0,0-9.88-.75H25.31l.11,71.88H35.56V257.73h1.95c.79,0,1.63,0,2.49,0s1.63,0,2.44,0h2a35.73,35.73,0,0,1,5.47.35,11.12,11.12,0,0,1,4.22,1.46,9.57,9.57,0,0,1,3.19,3.35,21.45,21.45,0,0,1,2.26,6c.18.76.64,2.66,1.37,5.74s1.57,6.69,2.64,11.36v.07H74.18V286C73.39,283.47,72.67,281,72,278.64ZM46.37,247.89H35.5V223H46.36a44.89,44.89,0,0,1,6.24.4,13.61,13.61,0,0,1,5,1.62,8.46,8.46,0,0,1,3.32,3.54,13.52,13.52,0,0,1,1.22,6.2,14,14,0,0,1-1.29,6.4,10.44,10.44,0,0,1-3.49,4,14.51,14.51,0,0,1-5,2.1A28.75,28.75,0,0,1,46.37,247.89Z"/></g><g id="Layer_2" data-name="Layer 2"><path d="M130,214.25v29.69h-2.32L98.61,244a3.87,3.87,0,0,0-3,1.47h0a18.51,18.51,0,0,0-1.48,2.14q-.69,1.15-1.32,2.4c-.42.83-.83,1.58-1.23,2.26l-1.51-1.14,2.69-4.43a13.79,13.79,0,0,0,1.91-4.78h0a27.13,27.13,0,0,0,.44-5.09V214.32H84.8l.11,71.88h10.3V255.07l31.38-.06a3.87,3.87,0,0,0,3-1.49,16.69,16.69,0,0,0,1.49-2.14c.45-.76.89-1.56,1.31-2.39s.83-1.59,1.24-2.27l1.5,1.14-2.69,4.44a13.74,13.74,0,0,0-1.91,4.77h0a24.81,24.81,0,0,0-.45,4.71V286.1h10.39l-.1-71.88Z"/></g><g id="Layer_3" data-name="Layer 3"><path class="cls-1" d="M160.59,266.15a9.6,9.6,0,0,0,.18,1.31,5.68,5.68,0,0,0,.27,1l.06.2a3.2,3.2,0,0,0,.17.43,7,7,0,0,0,.35.73,8.37,8.37,0,0,0,1.74,2.19,11.58,11.58,0,0,0,3.48,2.15l.32.12.31.12h.11l.28.1.53.16.23.07.65.16.64.13.87.13a16.47,16.47,0,0,0,1.71.16h3.67a14.74,14.74,0,0,0,1.63-.16H178a4.19,4.19,0,0,0,.67-.11h.13l.37-.1.48-.11h.4l1-.32.65-.25a14.11,14.11,0,0,0,1.61-.79h0l.35-.21h0a4.22,4.22,0,0,1,2-.51h.1a4,4,0,0,1,1.42.29h0a4.74,4.74,0,0,1,1.1.61,5.34,5.34,0,0,1,1.87,2.87h0a6,6,0,0,1,.2,1.52,5.46,5.46,0,0,1-2.25,4.53h0l-.4.25h-.06a20.43,20.43,0,0,1-2.69,1.34l-1.1.42h-.13c-.16.05-.31.11-.47.15l-.61.2a6.21,6.21,0,0,1-.74.2c-.26.08-.53.14-.82.2h-.19c-.25.06-.51.12-.79.16h-.64a7.14,7.14,0,0,1-1.14-.06c-.76-.06-1.48-.15-2.17-.25-.35-.06-.69-.11-1-.18l-.76-.18-.82-.23-.61-.2-.61-.22-.28-.11-.27-.1-.18-.09a5.83,5.83,0,0,1-.72-.32A18.35,18.35,0,0,1,168,281.8a16.7,16.7,0,0,1-2.4-2.12A18.55,18.55,0,0,1,163,276a18.9,18.9,0,0,1-1.1-2.48c-.16-.45-.3-.89-.43-1.35A18,18,0,0,1,161,270v-.17a21.15,21.15,0,0,1-.29-2.63v-1h0Z"/><path class="cls-2" d="M160.72,263.54c.08-.73.2-1.44.34-2.14a25.64,25.64,0,0,1,.8-2.85,18,18,0,0,1,1.82-3.75h0a18.07,18.07,0,0,1,1.94-2.51,17.82,17.82,0,0,1,1.67-1.58q.45-.36.93-.69c.32-.23.65-.44,1-.65l.45-.26a17.54,17.54,0,0,1,2.18-1.06,22.25,22.25,0,0,1,8.65-1.56,24.62,24.62,0,0,1,3.09.17l.28.09a25,25,0,0,1,3,1.31c.27.13.59.31.92.51a7.72,7.72,0,0,1,1,.59l.61.43a16.58,16.58,0,0,1,1.75,1.38,18.89,18.89,0,0,1,4.65,6.63,21.17,21.17,0,0,1,1.15,3.81,25.24,25.24,0,0,1,.28,4.07,4.1,4.1,0,0,1-3.84,4.32H167.5a4,4,0,0,1-3.81-4.27,4,4,0,0,1,3.71-4.12h19.52a8,8,0,0,0-1.66-2.13,8.31,8.31,0,0,0-.93-.73l-.22-.16-.36-.25-.38-.21c-.14-.09-.29-.17-.44-.25a16.06,16.06,0,0,0-1.9-.83,23.14,23.14,0,0,0-13.54,0,13.41,13.41,0,0,0-1.94.85c-.2.1-.39.21-.63.36l-.11.06c-.12.07-.24.14-.35.22l-.23.16a7.89,7.89,0,0,0-.9.72,8.21,8.21,0,0,0-1.74,2.19c-.11.21-.21.42-.3.64a8.61,8.61,0,0,0-.61,2.22l-.05.53v-.49a3,3,0,0,1,.07-.75Z"/><path class="cls-3" d="M170.88,283.51a5.83,5.83,0,0,0,.72.32l.18.09.27.1.28.11.61.22.61.2.82.23.76.18c.33.07.67.12,1,.18a17.58,17.58,0,0,0,2.17.25c.37,0,.75.06,1.14.06h.64c-.35.07-.73.14-1.13.18a20.72,20.72,0,0,1-2.36.23c-.33,0-.68.05-1.06.06h-2.46a8.24,8.24,0,0,1-1.21-.06,19.63,19.63,0,0,1-2.42-.24l-1.1-.18-.86-.17-.53-.12-.31-.08-.81-.23-.69-.21h-.08l-.15-.05-.5-.18h-.08l-.83-.32a20.57,20.57,0,0,1-6.14-3.89,18.75,18.75,0,0,1-4.6-6.57,14.77,14.77,0,0,1-.53-1.45,20,20,0,0,1-.62-2.3h0a21.93,21.93,0,0,1-.38-2.9v-3l.06-.57h0v-.24c.06-.55.15-1.1.25-1.64a21.79,21.79,0,0,1,1.15-3.79,18.59,18.59,0,0,1,4.63-6.62,17.7,17.7,0,0,1,2-1.57,8.87,8.87,0,0,1,1.12-.72q.57-.36,1.17-.66a23.37,23.37,0,0,1,3-1.29,28.25,28.25,0,0,1,9.6-1.52,28.93,28.93,0,0,1,9.32,1.42,24.62,24.62,0,0,0-3.09-.17,22.25,22.25,0,0,0-8.65,1.56,17.54,17.54,0,0,0-2.18,1.06l-.45.26c-.34.21-.67.42-1,.65a10.16,10.16,0,0,0-.93.69,17.82,17.82,0,0,0-1.67,1.58,16.56,16.56,0,0,0-2,2.57,18.39,18.39,0,0,0-1.74,3.6,21.57,21.57,0,0,0-.84,2.95c-.15.71-.26,1.42-.34,2.14h0c0,.25,0,.49-.07.75a3.91,3.91,0,0,0,0,.49v2.4a21.15,21.15,0,0,0,.29,2.63v.17a18,18,0,0,0,.5,2.17c.13.46.27.9.43,1.35A19.84,19.84,0,0,0,163,276a18.14,18.14,0,0,0,2.66,3.72,16.7,16.7,0,0,0,2.4,2.12A18.19,18.19,0,0,0,170.88,283.51Z"/></g><g id="Layer_4" data-name="Layer 4"><path d="M243.67,245.08c-2.23-1.08-4.5-2.06-6.75-2.91s-4.39-1.68-6.38-2.49a32.74,32.74,0,0,1-7.86-4.33,5.68,5.68,0,0,1-2.33-4.27,6.24,6.24,0,0,1,1-3.38,9,9,0,0,1,2.75-2.7,14.14,14.14,0,0,1,4.28-1.79,22.18,22.18,0,0,1,5.45-.62,19,19,0,0,1,5.14.65,15.58,15.58,0,0,1,4.28,1.83,10.58,10.58,0,0,1,3,2.73,7.88,7.88,0,0,1,1.39,3.49v.08h10.57v-.1a16,16,0,0,0-2.15-7.32,21.12,21.12,0,0,0-5.19-5.95,24.5,24.5,0,0,0-7.45-4,28.05,28.05,0,0,0-9-1.42,32.64,32.64,0,0,0-10,1.51,25.61,25.61,0,0,0-8,4.18,19.64,19.64,0,0,0-5.31,6.33,16.77,16.77,0,0,0-1.9,7.89,14.18,14.18,0,0,0,3.38,9.38c2.23,2.66,5.81,5.11,10.63,7.28,2.09.94,4.29,1.83,6.52,2.65s4.4,1.66,6.52,2.55c4.68,1.89,8.08,3.79,10.12,5.65a8.65,8.65,0,0,1,3.06,6.52,8.52,8.52,0,0,1-4,7.3c-2.66,1.83-6.19,2.76-10.49,2.77a21.21,21.21,0,0,1-5.87-.8,19.54,19.54,0,0,1-5-2.19,13.1,13.1,0,0,1-3.55-3.25,9.23,9.23,0,0,1-1.76-4.1v-.07H207.93v.1a22.23,22.23,0,0,0,2.6,8.64,22.45,22.45,0,0,0,5.65,6.73A25.49,25.49,0,0,0,224.4,286a32.72,32.72,0,0,0,10.16,1.52A34.5,34.5,0,0,0,245,286a22.87,22.87,0,0,0,7.89-4.28,18.93,18.93,0,0,0,5-6.75,21.65,21.65,0,0,0,1.76-8.91,19.21,19.21,0,0,0-3.88-11.88C253.23,250.78,249.15,247.73,243.67,245.08Z"/></g><g id="Layer_5" data-name="Layer 5"><path d="M270.45,214v10.84H288l.09,61h10.31l-.08-55a11,11,0,0,0-.64-3.69,5.4,5.4,0,0,0-.33-.74,17.38,17.38,0,0,0-1.47-2.15c-.54-.68-1.13-1.36-1.73-2s-1.17-1.3-1.65-1.9l1.35-1.38c1,1.21,2,2.56,3.15,4a4.53,4.53,0,0,0,3.58,1.84h15.28V213.91Z"/></g><g id="Layer_6" data-name="Layer 6"><path d="M326.65,213.91c0,24.1.26,46.75.26,72.07h5c7.46-22.7,4.43-48,4.43-72.07Z"/></g><g id="Layer_7" data-name="Layer 7"><path class="cls-4" d="M357.06,266.15a11.44,11.44,0,0,0,.17,1.31,8.68,8.68,0,0,0,.27,1l.06.2a3.2,3.2,0,0,0,.17.43,5.49,5.49,0,0,0,.36.73,8.33,8.33,0,0,0,1.73,2.19,11.75,11.75,0,0,0,3.49,2.15l.32.12.31.12h.11l.27.1.54.16.23.07.65.16.64.13.87.13a16.47,16.47,0,0,0,1.71.16h3.67a14.74,14.74,0,0,0,1.63-.16h.23a4.38,4.38,0,0,0,.67-.11h.13l.37-.1.47-.11h.4l1-.32.65-.25a13.2,13.2,0,0,0,1.6-.79h0l.35-.21h0a4.1,4.1,0,0,1,2-.51h.1a4,4,0,0,1,1.41.29h0a4.74,4.74,0,0,1,1.1.61,5.44,5.44,0,0,1,1.87,2.87h0a6,6,0,0,1,.19,1.52,5.44,5.44,0,0,1-2.25,4.53h0l-.4.25h-.06a20.43,20.43,0,0,1-2.69,1.34l-1.1.42h-.14l-.46.15-.62.2a6.05,6.05,0,0,1-.73.2c-.26.08-.54.14-.82.2h-.2c-.24.06-.51.12-.78.16h-.65a7.2,7.2,0,0,1-1.14-.06c-.76-.06-1.47-.15-2.17-.25-.35-.06-.69-.11-1-.18l-.76-.18-.81-.23-.62-.2-.6-.22-.29-.11-.26-.1a.66.66,0,0,0-.19-.09c-.24-.1-.48-.2-.71-.32a18.42,18.42,0,0,1-2.87-1.71,17.18,17.18,0,0,1-2.39-2.12,17.76,17.76,0,0,1-2.66-3.72,18.9,18.9,0,0,1-1.1-2.48,12.47,12.47,0,0,1-.43-1.35,20.1,20.1,0,0,1-.51-2.17v-.17a25.79,25.79,0,0,1-.29-2.63v-1h0Z"/><path class="cls-5" d="M357.18,263.54c.09-.73.2-1.44.35-2.14a23.14,23.14,0,0,1,.8-2.85,18,18,0,0,1,1.81-3.75h0a18.07,18.07,0,0,1,1.94-2.51,17.82,17.82,0,0,1,1.67-1.58c.3-.24.61-.47.92-.69s.65-.44,1-.65l.45-.26A17.86,17.86,0,0,1,368.3,248a22.3,22.3,0,0,1,8.66-1.56,24.62,24.62,0,0,1,3.09.17l.28.09a25,25,0,0,1,3,1.31,8.26,8.26,0,0,1,.92.51,7.16,7.16,0,0,1,.95.59c.21.14.42.28.62.43a16.46,16.46,0,0,1,1.74,1.38,18.68,18.68,0,0,1,4.65,6.63,19.46,19.46,0,0,1,1.15,3.81,24.16,24.16,0,0,1,.29,4.07,4.11,4.11,0,0,1-3.85,4.32H364a4,4,0,0,1-3.8-4.27,4,4,0,0,1,3.71-4.12h19.52a7.84,7.84,0,0,0-1.67-2.13,8.31,8.31,0,0,0-.93-.73l-.21-.16-.36-.25-.38-.21-.44-.25a15.32,15.32,0,0,0-1.91-.83,23.11,23.11,0,0,0-13.53,0,14,14,0,0,0-1.95.85c-.2.1-.39.21-.63.36l-.1.06a2.56,2.56,0,0,0-.35.22l-.23.16a8,8,0,0,0-.91.72,8.33,8.33,0,0,0-1.73,2.19c-.11.21-.21.42-.31.64a9.47,9.47,0,0,0-.6,2.22l-.06.53v-.49a3.12,3.12,0,0,1,.06-.75Z"/><path class="cls-6" d="M367.35,283.51c.23.12.47.22.71.32a.66.66,0,0,1,.19.09l.26.1.29.11.6.22.62.2.81.23.76.18c.33.07.67.12,1,.18a17.58,17.58,0,0,0,2.17.25c.37,0,.76.06,1.14.06h.65c-.35.07-.72.14-1.12.18a20.72,20.72,0,0,1-2.36.23c-.33,0-.69.05-1.07.06h-2.45a8.52,8.52,0,0,1-1.22-.06,19.47,19.47,0,0,1-2.41-.24l-1.11-.18-.85-.17-.53-.12-.31-.08c-.29-.07-.56-.15-.82-.23l-.68-.21h-.08l-.15-.05a4.24,4.24,0,0,1-.5-.18h-.09l-.8-.4a20.52,20.52,0,0,1-6.13-3.89,18.75,18.75,0,0,1-4.6-6.57c-.21-.5-.39-1-.54-1.45a16.58,16.58,0,0,1-.61-2.3h0a20.4,20.4,0,0,1-.39-2.9v-3l.06-.57h0v-.24c.07-.55.15-1.1.26-1.64a20.72,20.72,0,0,1,1.15-3.79,18.69,18.69,0,0,1,4.62-6.62,17.7,17.7,0,0,1,2-1.57,11.71,11.71,0,0,1,1.11-.72c.38-.23.77-.46,1.17-.66a23.37,23.37,0,0,1,3-1.29,31.22,31.22,0,0,1,18.93-.1,24.62,24.62,0,0,0-3.09-.17A22.36,22.36,0,0,0,368.3,248a17.41,17.41,0,0,0-2.17,1.06l-.45.26c-.35.21-.68.42-1,.65s-.62.43-.92.69a17.82,17.82,0,0,0-1.67,1.58,16.56,16.56,0,0,0-2,2.57,17.36,17.36,0,0,0-1.75,3.6,23,23,0,0,0-.83,2.95c-.14.7-.27,1.41-.35,2.14h0a3.21,3.21,0,0,1-.06.75v2.89a25.79,25.79,0,0,0,.29,2.63v.17a20.1,20.1,0,0,0,.51,2.17,12.47,12.47,0,0,0,.43,1.35,18.9,18.9,0,0,0,1.1,2.48,17.76,17.76,0,0,0,2.66,3.72,17.18,17.18,0,0,0,2.39,2.12A18.53,18.53,0,0,0,367.35,283.51Z"/></g><g id="Layer_8" data-name="Layer 8"><path class="cls-7" d="M474.54,272.93c-.75-5.09-5.66-9.11-12.82-10.49-7.53-1.45-8.55-4.15-8.55-6.6s2.37-3.9,5.89-4a10.51,10.51,0,0,1,8.29,3.8l.49.55,5.78-4.24-.56-.83a16.92,16.92,0,0,0-14-7.15c-4.35,0-8.07,1.5-10.45,4.22a11.39,11.39,0,0,0-2.76,7.77c0,5.93,6.22,10.25,12.29,11.46,5.77,1.14,9.08,3.43,9.08,6.28s-2.89,4.71-7,4.71-6.5-1.38-7.86-4.33l-.24-.52H444l.43,1.3c2.43,7.34,9.62,10.89,15.67,11.15h.76c4.87,0,9.19-1.86,11.65-5.05A10.42,10.42,0,0,0,474.54,272.93Z"/></g><g id="Layer_9" data-name="Layer 9"><path class="cls-7" d="M422.11,262.44c-7.53-1.45-8.54-4.15-8.54-6.6s2.36-3.9,5.88-4a10.53,10.53,0,0,1,8.3,3.8l.48.55L434,252l-.56-.83a16.92,16.92,0,0,0-14-7.15c-4.36,0-8.07,1.5-10.46,4.22a11.46,11.46,0,0,0-2.76,7.77c0,5.93,6.22,10.25,12.29,11.46,5.77,1.14,9.08,3.43,9.08,6.28s-2.89,4.71-7,4.71-6.51-1.38-7.87-4.33l-.24-.52h-8.12l.43,1.3c2.44,7.34,9.62,10.89,15.67,11.15h.76c4.87,0,9.19-1.86,11.65-5.05a10.38,10.38,0,0,0,2-8.09C434.18,267.84,429.27,263.82,422.11,262.44Z"/></g></svg>